<svg width="135" height="56" viewBox="0 0 135 56" fill="none" xmlns="http://www.w3.org/2000/svg">
<path d="M0.5 36H31L45.5 15.5L52.5 22L65 1L77.5 22L84.5 15.5L102 36H134.5" stroke="white"/>
<path d="M45.5 16L46.5 22L43.5 30L52.5 22" stroke="white"/>
<path d="M65 2L69.5 23L65 33L77.5 22" stroke="white"/>
<path d="M84.5 16L86 26L84.5 31L91.5 24.5" stroke="white"/>
<path d="M48.3681 23.3864C48.2393 23.4636 48.1455 23.6012 48.0447 23.7098C47.9028 23.8625 47.7803 24.0258 47.6548 24.1917C47.5441 24.3379 47.4226 24.4873 47.2816 24.6058C47.1657 24.7032 47.0778 24.7975 46.9467 24.8768C46.8486 24.9361 46.7808 25.025 46.7345 25.1299C46.5776 25.4849 46.3506 25.7798 46.1362 26.1014" stroke="white" stroke-width="2" stroke-linecap="square"/>
<path d="M47.1486 25.066C46.9791 25.292 46.984 25.6005 46.8264 25.8368C46.6817 26.0539 46.5505 26.2794 46.4072 26.4977C46.2225 26.7789 45.9837 27.0252 45.7693 27.2838C45.5048 27.6027 45.1777 27.8715 44.8937 28.1722C44.8619 28.2059 44.8178 28.3339 44.8259 28.2246C44.8354 28.0962 44.8831 27.9748 44.9307 27.8565C45.0288 27.6131 45.1234 27.3673 45.2337 27.1291C45.3971 26.7764 45.5859 26.4326 45.7872 26.1014C46.2696 25.3078 46.8808 24.6012 47.4323 23.8568C47.8767 23.2569 48.3178 22.6518 48.8065 22.0864C49.17 21.6658 49.6059 21.2502 50.1001 20.987C50.258 20.903 50.5413 20.705 50.5027 21.0037C50.4703 21.2552 50.339 21.4969 50.2215 21.7169C49.9799 22.1695 49.6879 22.5979 49.3574 22.9901C48.9639 23.4569 48.4955 23.8666 48.12 24.3476C47.9747 24.5339 47.8762 24.7583 47.7468 24.9561C47.6604 25.0881 47.5121 25.2773 47.4732 25.4329C47.4308 25.6027 47.7942 25.4319 47.8388 25.406C48.2849 25.1475 48.5275 24.6464 48.8154 24.239C49.0971 23.8402 49.4133 23.4795 49.7652 23.1409C49.9995 22.9155 50.2191 22.6635 50.4618 22.4481C50.5814 22.342 50.72 22.2216 50.8658 22.1554C51.0052 22.092 51.1548 22.0453 51.285 21.9598C51.31 21.9434 51.5085 21.8335 51.4921 21.7987C51.4416 21.6913 50.9242 21.7507 50.8313 21.7668C50.552 21.8151 50.3011 22.0739 50.242 22.351C50.232 22.3975 50.1879 22.7033 50.2675 22.7178C50.4216 22.7458 50.6601 22.6365 50.8019 22.581C50.9465 22.5245 51.0737 22.4289 51.2084 22.3535C51.3919 22.2507 51.2663 22.4196 51.1981 22.489C51.1209 22.5677 50.8567 22.7588 50.9591 22.7178C51.2535 22.6001 51.5558 22.4918 51.8424 22.3561C51.8885 22.3342 51.941 22.328 51.9919 22.328C52.0151 22.328 52.1083 22.3254 52.1006 22.3331C52.0481 22.3855 51.9458 22.4504 51.8782 22.489C51.8033 22.5318 51.7424 22.6079 51.6685 22.6501C51.4985 22.7472 51.3562 22.9052 51.193 23.0182C51.0651 23.1068 50.9539 23.2209 50.83 23.3173C50.7123 23.4089 50.594 23.4905 50.4848 23.5934C50.3664 23.7051 50.4158 23.2731 50.4158 23.2202C50.4158 22.8202 50.4268 22.4184 50.4145 22.0186C50.403 21.6442 50.1565 21.2717 49.8585 21.0497C49.6793 20.9162 49.4485 20.8197 49.2436 20.7301C49.1988 20.7105 49.1966 20.7253 49.2079 20.7659C49.2556 20.9378 49.2189 21.1553 49.2245 21.3309C49.2406 21.8424 49.2424 22.3531 49.2424 22.8648C49.2424 22.882 49.2437 23.04 49.2424 22.9415C49.2373 22.57 49.1526 22.205 49.08 21.8422C48.9885 21.3844 48.8913 20.8991 48.6748 20.4808C48.6479 20.4288 48.5202 20.2003 48.4831 20.3569C48.2502 21.339 47.9586 22.305 47.7493 23.293C47.7316 23.3767 47.6911 23.6244 47.679 23.5398C47.6548 23.3701 47.6765 23.1781 47.679 23.008C47.6844 22.6424 47.7018 22.2755 47.7468 21.9125C47.7601 21.8047 47.7778 21.6973 47.7877 21.5891C47.7913 21.5492 47.8177 21.4496 47.7826 21.469C47.7474 21.4883 47.7093 21.5672 47.6918 21.5942C47.6087 21.7228 47.5236 21.8504 47.4426 21.9803C47.165 22.425 46.9457 22.9003 46.6897 23.357C46.5063 23.6841 46.3239 24.0242 46.1131 24.3348C46.0347 24.4504 46.0215 24.4001 46.0722 24.276C46.3677 23.5538 46.7533 22.885 46.9364 22.1183C47.0516 21.6359 47.0677 21.1547 47.0552 20.6611C47.0508 20.4875 47.0105 19.9685 47.0105 20.1421" stroke="white" stroke-linecap="square"/>
<path d="M49.8636 20.6943C49.822 20.686 49.7884 20.6465 49.7549 20.6228C49.6479 20.5468 49.5339 20.4804 49.4213 20.4131C49.0889 20.2146 48.7461 20.0401 48.4422 19.797C48.0161 19.4562 47.6509 19.0605 47.3786 18.5916C47.1681 18.229 47.0444 17.8105 46.8034 17.468C46.7215 17.3516 46.6189 17.2404 46.5375 17.1228C46.4818 17.0424 46.3928 16.9744 46.3432 16.8876C46.3102 16.8299 46.2959 16.8813 46.3087 16.9222C46.3447 17.0373 46.3311 17.1704 46.3483 17.289C46.3868 17.5534 46.4081 17.8209 46.4711 18.0815C46.6454 18.804 47.0227 19.502 47.4246 20.1191C47.5881 20.3701 47.7657 20.7485 48.0459 20.8886C48.1277 20.9295 48.1966 20.9903 48.276 21.0344C48.3517 21.0764 48.3488 20.8232 48.3565 20.771C48.4014 20.4666 48.4555 20.1664 48.4345 19.8571C48.419 19.6292 48.2674 19.4578 48.1034 19.3138C47.9459 19.1755 47.8091 19.0361 47.702 18.8549C47.6707 18.8018 47.5752 18.6052 47.6368 18.5366C47.6473 18.525 47.9719 18.7793 47.9871 18.7897C48.2957 19.002 48.6136 19.1954 48.9305 19.3943C49.0732 19.484 49.2078 19.5922 49.3331 19.705C49.3996 19.7648 49.4662 19.8744 49.5415 19.912" stroke="white" stroke-linecap="square"/>
<path d="M65.8495 3.31671C65.8495 3.61058 65.7974 3.9768 65.9943 4.21746C66.1512 4.40929 66.2666 4.65803 66.3835 4.88016C66.5529 5.20198 66.7326 5.47369 66.9787 5.71979C67.1445 5.8856 67.2089 6.18667 67.2972 6.39857C67.4475 6.75935 67.6478 7.13644 67.8762 7.45374C67.9235 7.51949 68.5189 8.20725 68.4424 8.28372C68.405 8.32111 67.6474 7.78041 67.5867 7.74327C67.0206 7.39732 66.4286 6.41845 66.4286 5.74875" stroke="white" stroke-linecap="square"/>
<path d="M66.3706 30.8798C66.4268 30.3176 66.9272 29.7597 67.2392 29.3163C67.297 29.2342 67.8695 28.5251 67.8762 28.6922C67.8811 28.8159 67.9428 28.9812 67.9212 29.0268C67.8023 29.2778 67.5901 29.5005 67.4258 29.7217C67.295 29.8978 67.2691 30.1368 67.1234 30.3007C67.0305 30.4051 67.097 30.4259 67.1942 30.3586C67.3425 30.2559 67.4156 30.0786 67.5287 29.9404C67.7691 29.6467 68.1224 29.438 68.3394 29.1297C68.5154 28.8796 68.7021 28.6062 68.9185 28.3898" stroke="white" stroke-linecap="square"/>
<path d="M76.562 21.5569C76.562 21.7238 76.6032 21.9496 76.5331 22.1038C76.4654 22.2526 76.3368 22.3678 76.2725 22.5124C76.1791 22.7225 76.1567 22.3214 76.1567 22.2647C76.1567 21.9623 76.1567 21.6599 76.1567 21.3575C76.1567 21.0865 76.2284 20.6932 76.1535 20.431C76.109 20.2752 75.9851 20.5874 75.983 20.6304C75.9762 20.7648 75.983 20.9012 75.983 21.0358" stroke="white" stroke-linecap="square"/>
<path d="M85.4795 29.49C85.4795 28.8883 85.7042 28.4342 85.9427 27.8976C86.1481 27.4356 86.3467 26.9899 86.5797 26.5368C86.6565 26.3875 86.9602 25.9791 87.1588 26.1894C87.458 26.5062 87.3261 27.207 87.0976 27.5212C86.8445 27.8692 86.5912 28.1988 86.3191 28.5313C86.2209 28.6514 86.0585 28.8086 86.0585 28.9688" stroke="white" stroke-linecap="square"/>
<path d="M90.9226 24.1627C90.7949 24.3064 90.7181 24.4943 90.5881 24.6388C90.4961 24.7409 90.3419 25.0873 90.6041 24.8833C90.7776 24.7484 90.9493 24.578 91.0674 24.3943C91.2123 24.1689 91.3976 24.1422 91.1864 23.9311C90.9509 23.6956 90.6999 23.4647 90.4594 23.2362C90.3536 23.1357 90.1831 23.0455 90.1119 22.9209C90.0649 22.8386 89.9382 22.6009 89.9382 22.6957C89.9382 23.141 90.1706 23.5542 90.2245 23.9857C90.2481 24.1744 90.2278 24.3779 90.2278 24.568" stroke="white" stroke-linecap="square"/>
<path d="M85.1899 17.0403C85.1899 17.6275 85.1467 18.2292 85.251 18.8032C85.2764 18.9426 85.4065 19.3565 85.5953 19.3565C85.8968 19.3565 85.8269 18.6554 85.8269 18.4879C85.8269 18.1726 85.7686 17.9505 85.7143 17.6515C85.6839 17.4844 85.5769 17.2282 85.769 17.5164C86.0102 17.8783 86.273 18.2322 86.5507 18.5716C86.6962 18.7494 86.8278 18.9677 86.985 19.1249" stroke="white" stroke-linecap="square"/>
<path d="M72.277 18.7195C72.277 19.0959 72.277 19.4723 72.277 19.8487C72.277 20.3363 72.3741 20.9324 72.1612 21.3832C71.8455 22.0517 71.4795 22.6858 71.1639 23.352C71.0305 23.6338 70.9661 23.98 70.8583 24.2785C70.6707 24.7981 70.4042 25.3479 70.1345 25.8291C69.9534 26.1522 69.7797 26.4886 69.5812 26.8006C69.4566 26.9964 69.2524 27.1206 69.1244 27.3217C68.9848 27.541 68.7112 27.7925 68.629 28.0391C68.6166 28.0763 68.4194 28.3281 68.4102 28.319C68.2377 28.1464 68.4486 27.2485 68.4874 27.0579C68.6584 26.2187 69.0711 25.5511 69.4107 24.7964C69.731 24.0846 70.0332 23.3954 70.5978 22.8308" stroke="white" stroke-width="2" stroke-linecap="square"/>
<path d="M72.7401 21.9044C72.7401 23.0178 72.2463 23.9085 71.7011 24.8286C71.3682 25.3904 71.0462 25.9661 70.5976 26.4468C70.3514 26.7105 70.1622 27.2162 69.8449 27.3926C69.7563 27.4418 69.4561 27.8267 69.6776 27.5438C69.8961 27.2645 70.1962 27.061 70.4368 26.8006C70.822 26.3836 71.2342 25.9532 71.5692 25.4945C71.936 24.9923 72.3722 24.5549 72.798 24.1048C72.9659 23.9273 73.0598 23.777 73.2709 23.6609C73.7585 23.3927 74.102 22.9234 74.5384 22.596C74.6934 22.4798 74.869 22.3804 75.0306 22.2776C75.1122 22.2256 75.7157 21.8241 75.5067 22.0331C75.0674 22.4724 74.507 22.7804 74.0494 23.2041C73.8132 23.4228 73.3903 23.6621 73.2162 23.9311C73.1809 23.9857 72.8238 24.6148 72.8013 24.5359C72.7731 24.4374 72.798 24.2937 72.798 24.1949C72.798 23.5645 72.8014 22.9384 72.8559 22.3097C72.9579 21.1342 73.0297 19.9829 73.0297 18.8032C73.0297 18.3912 72.9898 17.9938 72.9267 17.5872C72.9052 17.4487 72.8968 17.3524 73.0618 17.4231C73.6162 17.6607 74.0494 18.4596 74.2328 18.9962C74.4197 19.5429 74.3615 20.1177 74.3615 20.6884C74.3615 21.1761 74.8043 21.3651 75.2558 21.1484C75.4694 21.0459 75.6665 20.9142 75.5196 20.6755C75.3962 20.475 75.3022 20.1735 75.0885 20.0514C74.9006 19.944 74.6621 19.8582 74.4451 19.7908C73.6431 19.5419 73.1093 19.6807 72.4377 20.1672C71.9568 20.5156 71.4531 20.8752 71.0319 21.2964C70.79 21.5383 70.7209 21.8705 70.4368 22.0781C70.2351 22.2255 70.3373 21.9729 70.2502 21.7886C70.0578 21.3812 70.0138 20.9533 69.9285 20.5147C69.7254 19.4704 69.552 18.423 69.3494 17.3813C68.995 15.5585 68.5814 13.7052 68.4101 11.8546C68.3134 10.8102 68.1865 9.71892 67.8889 8.71479C67.8478 8.5759 67.8662 8.43366 67.8053 8.29658C67.7012 8.06246 67.6136 8.0506 67.4418 7.91698C67.3774 7.86691 67.0784 7.58656 67.3807 7.68536C68.0137 7.89231 68.4695 8.41757 68.854 8.93033C69.1577 9.33526 69.5675 9.80045 69.7741 10.2654C69.8481 10.4319 69.8082 10.6675 69.877 10.8444C69.9845 11.1208 70.0855 11.4531 70.2502 11.7001C71.0365 12.8796 71.8915 13.9932 72.4796 15.2999C72.7349 15.8674 72.9139 16.4573 72.9139 17.0854C72.9139 17.4791 72.7668 17.6274 72.4474 17.851C72.3071 17.9492 72.1733 18.0259 72.0453 18.1405C71.8916 18.278 71.672 17.6694 71.6399 17.5936C71.2507 16.6757 71.0298 15.688 70.559 14.8013C70.211 14.1459 69.7349 13.724 69.2401 13.1896C68.9545 12.8812 68.6188 11.6311 68.8154 12.0025C69.1972 12.7237 69.5321 13.488 69.8223 14.2512C70.1863 15.2082 70.5057 16.1907 70.7392 17.1883C70.8637 17.7204 71.0774 18.2 71.2217 18.7196C71.2871 18.9549 71.3974 19.2262 71.3214 19.4691C71.2529 19.6884 71.2895 19.9542 71.3504 20.1672" stroke="white" stroke-width="2" stroke-linecap="round"/>
<path d="M86.0585 18.5458C86.0585 19.2825 86.0585 20.0192 86.0585 20.7559C86.0585 21.6671 86.1606 22.5789 86.2611 23.4839C86.2869 23.7153 86.2818 24.6368 86.5217 24.7868C86.656 24.8707 86.6944 25.5055 86.7533 25.6972C86.8525 26.0195 86.9681 26.18 87.2455 26.3341C87.477 26.4627 87.5463 26.486 87.7377 26.3052C88.1605 25.9059 88.6412 25.5755 89.0567 25.1599C89.3547 24.8619 89.6676 24.4555 89.5875 24.0147C89.502 23.5444 88.9715 23.1749 88.78 22.744C88.4856 22.0815 87.7883 21.6782 87.4482 21.0358C87.3211 20.7958 87.2026 20.5474 87.0718 20.312C87.0605 20.2916 86.9679 20.0006 86.9399 20.0321C86.8279 20.1581 86.94 20.7565 86.956 20.8942C87.1535 22.5928 87.9115 24.1283 87.9115 25.8419" stroke="white" stroke-width="2" stroke-linecap="round"/>
<path d="M0 55H134" stroke="white"/>
<path d="M17.968 50H17.08V42.404H17.884C18.612 43.5 19.88 45.564 21.688 48.596V42.404H22.576V50H21.748C21.316 49.352 20.436 47.952 19.108 45.8C18.548 44.888 18.168 44.264 17.968 43.928V50ZM29.9163 50.144C28.8203 50.144 27.9683 49.692 27.3603 48.788C26.8883 48.084 26.6523 47.228 26.6523 46.22C26.6523 45.052 26.9643 44.092 27.5883 43.34C28.1803 42.62 28.9563 42.26 29.9163 42.26C31.0123 42.26 31.8643 42.716 32.4723 43.628C32.9443 44.348 33.1803 45.212 33.1803 46.22C33.1803 47.388 32.8683 48.344 32.2443 49.088C31.6523 49.792 30.8763 50.144 29.9163 50.144ZM27.6003 46.22C27.6003 47.228 27.8203 48.016 28.2603 48.584C28.6683 49.104 29.2203 49.364 29.9163 49.364C30.7163 49.364 31.3203 49.028 31.7283 48.356C32.0643 47.804 32.2323 47.092 32.2323 46.22C32.2323 45.212 32.0123 44.42 31.5723 43.844C31.1643 43.3 30.6123 43.028 29.9163 43.028C29.1243 43.028 28.5203 43.376 28.1043 44.072C27.7683 44.632 27.6003 45.348 27.6003 46.22ZM37.255 50V42.404C37.967 42.308 38.583 42.26 39.103 42.26C40.895 42.26 41.791 43.028 41.791 44.564C41.791 45.612 41.343 46.316 40.447 46.676L41.971 50H41.071L39.667 46.892L39.655 46.88C39.519 46.896 39.351 46.904 39.151 46.904C38.839 46.904 38.503 46.88 38.143 46.832V50H37.255ZM38.143 43.052V46.112C38.431 46.16 38.751 46.184 39.103 46.184C40.271 46.184 40.855 45.644 40.855 44.564C40.855 43.5 40.271 42.968 39.103 42.968C38.735 42.968 38.415 42.996 38.143 43.052ZM45.9128 49.988V42.404C46.5848 42.308 47.1928 42.26 47.7368 42.26C49.0328 42.26 50.0248 42.652 50.7128 43.436C51.3128 44.116 51.6128 45.012 51.6128 46.124C51.6128 47.476 51.2408 48.504 50.4968 49.208C49.8408 49.832 48.9408 50.144 47.7968 50.144C47.2288 50.144 46.6008 50.092 45.9128 49.988ZM46.8008 43.052V49.352C47.0968 49.4 47.4288 49.424 47.7968 49.424C48.7488 49.424 49.4768 49.12 49.9808 48.512C50.4368 47.952 50.6648 47.172 50.6648 46.172C50.6648 45.092 50.3488 44.26 49.7168 43.676C49.2048 43.204 48.5528 42.968 47.7608 42.968C47.3528 42.968 47.0328 42.996 46.8008 43.052ZM56.5836 42.404V50H55.6956V42.404H56.5836ZM66.0385 43.016L65.6785 43.532C65.1425 43.196 64.5945 43.028 64.0345 43.028C63.2665 43.028 62.6625 43.344 62.2225 43.976C61.8145 44.552 61.6105 45.32 61.6105 46.28C61.6105 47.28 61.8745 48.06 62.4025 48.62C62.8505 49.108 63.4265 49.352 64.1305 49.352C64.7065 49.352 65.2545 49.164 65.7745 48.788L66.1345 49.328C65.5105 49.872 64.8025 50.144 64.0105 50.144C62.9145 50.144 62.0545 49.72 61.4305 48.872C60.9185 48.176 60.6625 47.312 60.6625 46.28C60.6625 45.128 60.9745 44.16 61.5985 43.376C62.1905 42.632 62.9465 42.26 63.8665 42.26C64.6825 42.26 65.4065 42.512 66.0385 43.016ZM75.4453 50V42.404H79.9093V43.16H76.3333V45.68H79.3453V46.436H76.3333V50H75.4453ZM84.0456 50V42.404C84.7576 42.308 85.3736 42.26 85.8936 42.26C87.6856 42.26 88.5816 43.028 88.5816 44.564C88.5816 45.612 88.1336 46.316 87.2376 46.676L88.7616 50H87.8616L86.4576 46.892L86.4456 46.88C86.3096 46.896 86.1416 46.904 85.9416 46.904C85.6296 46.904 85.2936 46.88 84.9336 46.832V50H84.0456ZM84.9336 43.052V46.112C85.2216 46.16 85.5416 46.184 85.8936 46.184C87.0616 46.184 87.6456 45.644 87.6456 44.564C87.6456 43.5 87.0616 42.968 85.8936 42.968C85.5256 42.968 85.2056 42.996 84.9336 43.052ZM95.4874 50.144C94.3914 50.144 93.5394 49.692 92.9314 48.788C92.4594 48.084 92.2234 47.228 92.2234 46.22C92.2234 45.052 92.5354 44.092 93.1594 43.34C93.7514 42.62 94.5274 42.26 95.4874 42.26C96.5834 42.26 97.4354 42.716 98.0434 43.628C98.5154 44.348 98.7514 45.212 98.7514 46.22C98.7514 47.388 98.4394 48.344 97.8154 49.088C97.2234 49.792 96.4474 50.144 95.4874 50.144ZM93.1714 46.22C93.1714 47.228 93.3914 48.016 93.8314 48.584C94.2394 49.104 94.7914 49.364 95.4874 49.364C96.2874 49.364 96.8914 49.028 97.2994 48.356C97.6354 47.804 97.8034 47.092 97.8034 46.22C97.8034 45.212 97.5834 44.42 97.1434 43.844C96.7354 43.3 96.1834 43.028 95.4874 43.028C94.6954 43.028 94.0914 43.376 93.6754 44.072C93.3394 44.632 93.1714 45.348 93.1714 46.22ZM102.358 49.376L102.742 48.836C103.326 49.172 103.946 49.34 104.602 49.34C105.106 49.34 105.502 49.224 105.79 48.992C106.078 48.752 106.222 48.416 106.222 47.984C106.222 47.248 105.738 46.712 104.77 46.376C103.946 46.096 103.35 45.784 102.982 45.44C102.614 45.096 102.43 44.676 102.43 44.18C102.43 43.588 102.662 43.112 103.126 42.752C103.55 42.424 104.106 42.26 104.794 42.26C105.546 42.26 106.23 42.468 106.846 42.884L106.45 43.424C105.954 43.16 105.422 43.028 104.854 43.028C104.39 43.028 104.022 43.128 103.75 43.328C103.478 43.528 103.342 43.8 103.342 44.144C103.342 44.68 103.758 45.104 104.59 45.416C105.534 45.776 106.194 46.148 106.57 46.532C106.954 46.908 107.146 47.4 107.146 48.008C107.146 48.704 106.878 49.252 106.342 49.652C105.902 49.98 105.366 50.144 104.734 50.144C103.942 50.144 103.15 49.888 102.358 49.376ZM110.341 43.16V42.404H116.053V43.16H113.545V50H112.657V43.16H110.341Z" fill="white"/>
</svg>
