<svg width="68" height="30" viewBox="0 0 68 30" fill="none" xmlns="http://www.w3.org/2000/svg">
<path d="M0 19H15.4776L22.8358 8.45714L26.3881 11.8L32.7313 1L39.0746 11.8L42.6269 8.45714L51.5075 19H68" stroke="white"/>
<path d="M23.1111 9L23.6667 12L22 16L27 12" stroke="white"/>
<path d="M33 2L35.16 12.8387L33 18L39 12.3226" stroke="white"/>
<path d="M43 9L43.6429 14.3333L43 17L46 13.5333" stroke="white"/>
<path d="M34 16C34.0221 15.7742 34.2184 15.5502 34.3409 15.3721C34.3636 15.3391 34.5883 15.0543 34.5909 15.1214C34.5929 15.1711 34.6171 15.2375 34.6086 15.2558C34.5619 15.3566 34.4786 15.4461 34.4141 15.5349C34.3628 15.6056 34.3526 15.7016 34.2955 15.7674C34.259 15.8094 34.2851 15.8177 34.3232 15.7907C34.3815 15.7494 34.4102 15.6782 34.4545 15.6227C34.5489 15.5048 34.6876 15.421 34.7727 15.2972C34.8418 15.1967 34.9151 15.0869 35 15" stroke="white" stroke-linecap="square"/>
<path d="M38.9798 11.5351C38.9798 11.6114 39.0491 11.7148 38.9311 11.7854C38.8172 11.8535 38.6006 11.9062 38.4924 11.9724C38.3352 12.0685 38.2975 11.885 38.2975 11.859C38.2975 11.7206 38.2975 11.5822 38.2975 11.4438C38.2975 11.3198 38.4182 11.1398 38.292 11.0198C38.2171 10.9485 38.0086 11.0914 38.005 11.1111C37.9937 11.1725 38.005 11.235 38.005 11.2966" stroke="white" stroke-linecap="square"/>
<path d="M0 29H68" stroke="white"/>
<path d="M8.984 26H8.54V22.202H8.942C9.306 22.75 9.94 23.782 10.844 25.298V22.202H11.288V26H10.874C10.658 25.676 10.218 24.976 9.554 23.9C9.274 23.444 9.084 23.132 8.984 22.964V26ZM14.9582 26.072C14.4102 26.072 13.9842 25.846 13.6802 25.394C13.4442 25.042 13.3262 24.614 13.3262 24.11C13.3262 23.526 13.4822 23.046 13.7942 22.67C14.0902 22.31 14.4782 22.13 14.9582 22.13C15.5062 22.13 15.9322 22.358 16.2362 22.814C16.4722 23.174 16.5902 23.606 16.5902 24.11C16.5902 24.694 16.4342 25.172 16.1222 25.544C15.8262 25.896 15.4382 26.072 14.9582 26.072ZM13.8002 24.11C13.8002 24.614 13.9102 25.008 14.1302 25.292C14.3342 25.552 14.6102 25.682 14.9582 25.682C15.3582 25.682 15.6602 25.514 15.8642 25.178C16.0322 24.902 16.1162 24.546 16.1162 24.11C16.1162 23.606 16.0062 23.21 15.7862 22.922C15.5822 22.65 15.3062 22.514 14.9582 22.514C14.5622 22.514 14.2602 22.688 14.0522 23.036C13.8842 23.316 13.8002 23.674 13.8002 24.11ZM18.6275 26V22.202C18.9835 22.154 19.2915 22.13 19.5515 22.13C20.4475 22.13 20.8955 22.514 20.8955 23.282C20.8955 23.806 20.6715 24.158 20.2235 24.338L20.9855 26H20.5355L19.8335 24.446L19.8275 24.44C19.7595 24.448 19.6755 24.452 19.5755 24.452C19.4195 24.452 19.2515 24.44 19.0715 24.416V26H18.6275ZM19.0715 22.526V24.056C19.2155 24.08 19.3755 24.092 19.5515 24.092C20.1355 24.092 20.4275 23.822 20.4275 23.282C20.4275 22.75 20.1355 22.484 19.5515 22.484C19.3675 22.484 19.2075 22.498 19.0715 22.526ZM22.9564 25.994V22.202C23.2924 22.154 23.5964 22.13 23.8684 22.13C24.5164 22.13 25.0124 22.326 25.3564 22.718C25.6564 23.058 25.8064 23.506 25.8064 24.062C25.8064 24.738 25.6204 25.252 25.2484 25.604C24.9204 25.916 24.4704 26.072 23.8984 26.072C23.6144 26.072 23.3004 26.046 22.9564 25.994ZM23.4004 22.526V25.676C23.5484 25.7 23.7144 25.712 23.8984 25.712C24.3744 25.712 24.7384 25.56 24.9904 25.256C25.2184 24.976 25.3324 24.586 25.3324 24.086C25.3324 23.546 25.1744 23.13 24.8584 22.838C24.6024 22.602 24.2764 22.484 23.8804 22.484C23.6764 22.484 23.5164 22.498 23.4004 22.526ZM28.2918 22.202V26H27.8478V22.202H28.2918ZM33.0193 22.508L32.8393 22.766C32.5713 22.598 32.2973 22.514 32.0173 22.514C31.6333 22.514 31.3313 22.672 31.1113 22.988C30.9073 23.276 30.8053 23.66 30.8053 24.14C30.8053 24.64 30.9373 25.03 31.2013 25.31C31.4253 25.554 31.7133 25.676 32.0653 25.676C32.3533 25.676 32.6273 25.582 32.8873 25.394L33.0673 25.664C32.7553 25.936 32.4013 26.072 32.0053 26.072C31.4573 26.072 31.0273 25.86 30.7153 25.436C30.4593 25.088 30.3313 24.656 30.3313 24.14C30.3313 23.564 30.4873 23.08 30.7993 22.688C31.0953 22.316 31.4733 22.13 31.9333 22.13C32.3413 22.13 32.7033 22.256 33.0193 22.508ZM37.7226 26V22.202H39.9546V22.58H38.1666V23.84H39.6726V24.218H38.1666V26H37.7226ZM42.0228 26V22.202C42.3788 22.154 42.6868 22.13 42.9468 22.13C43.8428 22.13 44.2908 22.514 44.2908 23.282C44.2908 23.806 44.0668 24.158 43.6188 24.338L44.3808 26H43.9308L43.2288 24.446L43.2228 24.44C43.1548 24.448 43.0708 24.452 42.9708 24.452C42.8148 24.452 42.6468 24.44 42.4668 24.416V26H42.0228ZM42.4668 22.526V24.056C42.6108 24.08 42.7708 24.092 42.9468 24.092C43.5308 24.092 43.8228 23.822 43.8228 23.282C43.8228 22.75 43.5308 22.484 42.9468 22.484C42.7628 22.484 42.6028 22.498 42.4668 22.526ZM47.7437 26.072C47.1957 26.072 46.7697 25.846 46.4657 25.394C46.2297 25.042 46.1117 24.614 46.1117 24.11C46.1117 23.526 46.2677 23.046 46.5797 22.67C46.8757 22.31 47.2637 22.13 47.7437 22.13C48.2917 22.13 48.7177 22.358 49.0217 22.814C49.2577 23.174 49.3757 23.606 49.3757 24.11C49.3757 24.694 49.2197 25.172 48.9077 25.544C48.6117 25.896 48.2237 26.072 47.7437 26.072ZM46.5857 24.11C46.5857 24.614 46.6957 25.008 46.9157 25.292C47.1197 25.552 47.3957 25.682 47.7437 25.682C48.1437 25.682 48.4457 25.514 48.6497 25.178C48.8177 24.902 48.9017 24.546 48.9017 24.11C48.9017 23.606 48.7917 23.21 48.5717 22.922C48.3677 22.65 48.0917 22.514 47.7437 22.514C47.3477 22.514 47.0457 22.688 46.8377 23.036C46.6697 23.316 46.5857 23.674 46.5857 24.11ZM51.179 25.688L51.371 25.418C51.663 25.586 51.973 25.67 52.301 25.67C52.553 25.67 52.751 25.612 52.895 25.496C53.039 25.376 53.111 25.208 53.111 24.992C53.111 24.624 52.869 24.356 52.385 24.188C51.973 24.048 51.675 23.892 51.491 23.72C51.307 23.548 51.215 23.338 51.215 23.09C51.215 22.794 51.331 22.556 51.563 22.376C51.775 22.212 52.053 22.13 52.397 22.13C52.773 22.13 53.115 22.234 53.423 22.442L53.225 22.712C52.977 22.58 52.711 22.514 52.427 22.514C52.195 22.514 52.011 22.564 51.875 22.664C51.739 22.764 51.671 22.9 51.671 23.072C51.671 23.34 51.879 23.552 52.295 23.708C52.767 23.888 53.097 24.074 53.285 24.266C53.477 24.454 53.573 24.7 53.573 25.004C53.573 25.352 53.439 25.626 53.171 25.826C52.951 25.99 52.683 26.072 52.367 26.072C51.971 26.072 51.575 25.944 51.179 25.688ZM55.1703 22.58V22.202H58.0263V22.58H56.7723V26H56.3283V22.58H55.1703Z" fill="white"/>
<path d="M46.1835 13.6623C46.1701 13.5417 46.0108 13.4783 45.9381 13.3964C45.8441 13.2906 45.7616 13.1807 45.6722 13.0714C45.5258 12.8925 45.2869 12.7657 45.12 12.5988C45.0238 12.5026 44.9298 12.4086 44.8336 12.3124C44.7387 12.2175 44.6987 12.0957 44.6086 12.0056C44.4359 11.8329 44.3488 11.5272 44.1791 11.3307C44.0485 11.1794 43.9481 11.0121 43.8496 10.8398C43.7861 10.7287 43.6369 10.5781 43.6087 10.4512C43.6037 10.4288 43.5492 10.2309 43.5973 10.308C43.6934 10.4617 43.8256 10.6168 43.9428 10.758C44.2573 11.1369 44.5876 11.4959 44.9154 11.8602C45.0283 11.9856 45.273 12.2139 45.2836 12.3942C45.2895 12.4949 45.2769 12.5391 45.2245 12.6215C45.1353 12.7616 45.1847 13.012 45.1404 13.1714C45.0639 13.447 44.9427 13.6978 44.8427 13.9577C44.702 14.3236 44.4452 14.6077 44.1791 14.8895C44.0896 14.9843 44.1382 14.877 44.1382 14.7668C44.1382 14.6612 44.1509 14.5444 44.1359 14.4395C44.0665 13.9536 44.0315 13.4482 43.9246 12.9669C43.8473 12.6192 43.7999 12.2783 43.7496 11.9261C43.7281 11.7754 43.7292 11.6277 43.7292 11.4761C43.7292 11.3423 43.6955 11.3407 43.7519 11.4534C43.9305 11.8107 44.17 12.1442 44.2927 12.526C44.3942 12.8417 44.3836 13.2301 44.3836 13.56C44.3836 14.039 44.3591 14.5121 44.1587 14.9531C44.1426 14.9885 43.945 15.5016 43.9019 15.4531C43.834 15.3767 43.9379 15.0691 43.9564 14.9872C44.0609 14.5246 44.1576 14.0556 44.2996 13.6032C44.4901 12.9958 44.5676 12.0033 43.995 11.5579C43.8735 11.4634 43.4388 11.3307 43.5928 11.3307C43.7033 11.3307 43.884 11.5338 43.9541 11.5988C44.219 11.8441 44.4568 12.096 44.6882 12.3715C44.9348 12.6651 44.9225 12.9947 44.9154 13.3578C44.9138 13.4406 44.818 13.9124 44.8336 13.885C44.9239 13.727 45.1681 13.2765 45.3654 13.2532C45.4299 13.2457 45.4647 13.191 45.5472 13.2146C45.6114 13.2329 45.4102 13.4155 45.3836 13.4373C45.1974 13.5896 45.1011 13.5163 44.9654 13.4078C44.9104 13.3637 44.8382 13.3578 44.7836 13.3032C44.7403 13.2599 44.7138 13.1934 44.67 13.1714" stroke="white" stroke-width="0.5" stroke-linecap="round"/>
<path d="M38.9022 12.7214C38.9022 12.5092 39.1692 12.2621 39.2704 12.0851C39.385 11.8845 39.5768 11.7001 39.6408 11.4761C39.6618 11.4027 39.761 11.2981 39.8226 11.2488C39.9347 11.1592 39.8816 11.4062 39.8226 11.4533C39.7002 11.5513 39.5728 11.8253 39.4954 11.9647C39.4008 12.1348 39.2122 12.3069 39.0749 12.4442C38.9627 12.5565 39.1369 12.4336 39.1795 12.3533C39.216 12.2843 39.2753 12.1733 39.3204 12.1169C39.4392 11.9684 39.6109 11.7098 39.6885 11.5352C39.7673 11.3579 40.0129 11.2774 40.0885 11.1261" stroke="white" stroke-width="0.5" stroke-linecap="round"/>
<path d="M27.1213 12.2715C27.1213 11.6652 27.1345 11.0049 27.3259 10.4307" stroke="white" stroke-width="0.5" stroke-linecap="round"/>
<path d="M23.3171 14.3577C23.3171 13.9293 23.2793 13.4868 23.3807 13.0669C23.434 12.8459 23.4778 12.4468 23.667 12.2919C23.7312 12.2395 24.1892 11.8134 24.2897 12.0033C24.432 12.2721 24.2024 12.7811 24.0852 13.0078C23.9574 13.2549 23.7794 13.4657 23.6648 13.7214C23.5876 13.8936 23.44 14.0499 23.3989 14.235C23.3803 14.3187 23.358 14.5071 23.358 14.3122C23.358 13.84 23.6127 13.3634 23.7852 12.9351C23.9354 12.5623 24.059 12.1218 24.2783 11.7806C24.4712 11.4806 24.5365 11.8083 24.4806 12.0079C24.3474 12.4836 24.269 12.9861 24.0943 13.4487C24.0808 13.4844 24.0381 13.7264 24.0625 13.6532C24.213 13.2015 24.5613 12.8446 24.8715 12.4942C25.0739 12.2656 25.2833 12.0453 25.4783 11.8102C25.5044 11.7786 25.6236 11.5943 25.6805 11.5943C25.7402 11.5943 25.6259 11.703 25.5828 11.7443C25.4537 11.8678 25.3304 11.9959 25.1987 12.117C24.7458 12.5335 24.3982 12.9954 24.0125 13.4669C23.9972 13.4855 23.7647 13.7309 23.792 13.7418C23.915 13.791 24.1518 13.5547 24.2238 13.4941C24.7753 13.0297 25.3225 12.5568 25.8328 12.0465C25.9978 11.8814 25.9634 11.9467 25.7691 11.8374C25.4813 11.6755 24.9293 11.4418 24.7715 11.1261C24.6005 10.7841 24.3174 10.5539 24.0625 10.2989C24.0092 10.2457 23.8077 10.0652 23.9488 10.2466C24.1242 10.4721 24.1886 10.8165 24.3397 11.0648C24.5389 11.392 24.7068 11.7715 24.9442 12.067C25.0481 12.1963 25.1917 12.3415 25.2715 12.4851C25.297 12.5311 25.0876 12.496 25.0806 12.4942C24.9887 12.4712 24.9356 12.4193 24.8715 12.3533C24.6148 12.0891 24.5791 11.6546 24.4215 11.3306C24.358 11.2001 24.2364 10.809 24.0534 10.7989C23.9691 10.7942 23.9715 10.827 23.9715 10.9011C23.9715 11.0243 24.0726 11.0156 24.1534 11.067C24.3163 11.1707 24.4841 11.3662 24.6692 11.4125C24.7895 11.4425 25.3987 11.598 25.3987 11.7579C25.3987 11.9251 24.6465 11.5421 24.626 11.5306C24.3834 11.3941 24.2106 11.2243 24.0215 11.0352C23.9253 10.939 24.1233 11.326 24.1443 11.3806C24.1855 11.4879 24.2216 11.5286 24.217 11.6488C24.2143 11.7195 24.1156 11.7983 24.0534 11.7397C23.9367 11.6299 24.1026 11.3144 23.9715 11.2488" stroke="white" stroke-width="0.5" stroke-linecap="round"/>
<path d="M32.6846 1.84045C32.6846 2.36134 33.3255 2.51894 33.4641 3.004C33.5832 3.42109 33.6067 3.90529 33.7572 4.32663C33.8383 4.5538 33.9862 4.7895 34.1163 4.99022C34.1659 5.06679 34.4237 5.68063 34.3935 5.30383C34.3603 4.88889 34.245 4.52812 34.0776 4.15164C34.046 4.08036 33.9783 3.60988 33.9958 3.76758C34.0139 3.93009 34.0971 4.0818 34.1572 4.23118C34.3225 4.64222 34.4983 5.0485 34.6662 5.45837C34.8648 5.94276 35.0231 6.44986 35.1617 6.95371C35.3648 7.69245 35.5356 8.38822 35.548 9.15354C35.5551 9.59475 35.6707 10.9129 35.6707 10.4716" stroke="white" stroke-width="0.5" stroke-linecap="round"/>
<path d="M37.1432 12.7215C37.1432 12.69 37.0017 12.8894 36.9705 12.926C36.7878 13.1405 36.5858 13.3371 36.4092 13.5578C36.2494 13.7575 36.0773 13.9483 35.9251 14.1532C35.6468 14.5279 35.2908 14.9579 34.9434 15.2667C34.9231 15.2848 34.9343 15.1296 34.9343 15.094C34.9343 14.8012 34.952 14.5339 35.0411 14.2509C35.2321 13.6446 35.4792 12.9676 35.8342 12.4351C36.0356 12.1331 36.2494 11.8154 36.5069 11.5579C36.8363 11.2285 37.1818 10.9687 37.5682 10.7012C37.7642 10.5655 37.6543 11.149 37.625 11.217C37.3694 11.8105 36.8048 12.2247 36.4092 12.7192C36.2866 12.8725 36.2318 13.0584 36.2433 13.2532C36.2496 13.3598 36.5419 13.335 36.6046 13.335C36.8954 13.335 37.2096 13.3974 37.4296 13.1714C37.5827 13.0142 37.6638 12.7878 37.7886 12.6078C37.8544 12.5131 37.9742 12.3671 38 12.251C38.0141 12.1875 38.0998 11.9716 38.0341 11.9124C37.8087 11.7096 37.4672 12.2702 37.3659 12.3715C37.2211 12.5163 37.0338 12.6076 36.866 12.7215C36.762 12.792 36.816 12.7927 36.816 12.6783C36.816 11.4954 36.1297 10.4125 35.7138 9.34671C35.5417 8.90575 35.3742 8.46127 35.2116 8.01726C35.0551 7.58989 34.7958 7.18578 34.673 6.74917C34.6161 6.54712 34.6667 6.27762 34.5752 6.09468C34.5149 5.974 34.4136 5.86398 34.3616 5.74698C34.3368 5.69105 34.2566 5.66836 34.3003 5.74698C34.3503 5.83703 34.404 5.92638 34.4434 6.02196C34.6754 6.5836 34.811 7.18595 34.9343 7.78092C35.1115 8.63571 35.1626 9.52442 35.3116 10.3807C35.4036 10.9102 35.4968 11.5207 35.6933 12.0261C35.7262 12.1105 35.7733 12.1853 35.8524 12.2306C35.9127 12.265 35.8729 12.0623 35.8661 12.0079C35.8224 11.659 35.7037 11.3292 35.6388 10.9852C35.5499 10.5144 35.4923 10.0183 35.4661 9.53988C35.427 8.82726 35.3025 8.12761 35.3025 7.41276C35.3025 7.1643 35.3025 6.91583 35.3025 6.66736" stroke="white" stroke-linecap="round"/>
<path d="M35.3025 6.66736C35.3025 7.09965 35.5722 7.45458 35.6297 7.87181C35.669 8.15617 35.8069 8.42318 35.9252 8.68084C36.1884 9.25408 36.517 9.77698 36.9274 10.2557C37.0166 10.3598 37.071 10.475 37.1342 10.5943C37.2352 10.7852 37.0971 10.3995 37.0774 10.3625C36.8429 9.92413 36.5176 9.50159 36.3342 9.03991C36.1494 8.57453 36.0738 8.0815 35.9161 7.6082" stroke="white" stroke-linecap="round"/>
</svg>
