<svg width="24" height="24" viewBox="0 0 24 24" fill="none" xmlns="http://www.w3.org/2000/svg">
<g clip-path="url(#clip0_10_223)">
<path d="M9 19V12.5M9 12.5V5.5H13.5C13.9596 5.5 14.4148 5.59053 14.8394 5.76642C15.264 5.94231 15.6499 6.20012 15.9749 6.52513C16.2999 6.85013 16.5577 7.23597 16.7336 7.66061C16.9095 8.08525 17 8.54037 17 9C17 9.45963 16.9095 9.91475 16.7336 10.3394C16.5577 10.764 16.2999 11.1499 15.9749 11.4749C15.6499 11.7999 15.264 12.0577 14.8394 12.2336C14.4148 12.4095 13.9596 12.5 13.5 12.5H9ZM12 23.5C5.649 23.5 0.5 18.351 0.5 12C0.5 5.649 5.649 0.5 12 0.5C18.351 0.5 23.5 5.649 23.5 12C23.5 18.351 18.351 23.5 12 23.5Z" stroke="black"/>
</g>
<defs>
<clipPath id="clip0_10_223">
<rect width="24" height="24" fill="white"/>
</clipPath>
</defs>
</svg>
