<svg width="27" height="27" viewBox="0 0 27 27" fill="none" xmlns="http://www.w3.org/2000/svg">
<path d="M10.13 22V14.3916C9.53513 14.2922 9.03154 13.9938 8.61923 13.4964C8.20641 12.9985 8 12.3891 8 11.6682V6H8.76923V11.6674H10.13V6H10.8992V11.6674H12.2608V6H13.03V11.6674C13.03 12.3888 12.8233 12.9985 12.41 13.4964C11.9967 13.9944 11.4931 14.2928 10.8992 14.3916V22H10.13ZM17.23 22V15.2632H15.3377V9.78947C15.3377 8.85137 15.5795 8.02049 16.0631 7.29684C16.5467 6.57319 17.1923 6.15158 18 6.032V22H17.23Z" fill="black"/>
<circle cx="13.5" cy="13.5" r="13" stroke="black"/>
</svg>
