<svg width="30" height="30" viewBox="0 0 30 30" fill="none" xmlns="http://www.w3.org/2000/svg">
<path d="M4.17838 26.4054L4.6 29H25.075L25.5493 26.4054M4.17838 26.4054L3.12432 19.9189M4.17838 26.4054H6.875M25.5493 26.4054L26.7351 19.9189M25.5493 26.4054H23.125M2.77297 17.7568L2 13H6.875M2.77297 17.7568L3.12432 19.9189M2.77297 17.7568H6.875M27.1304 17.7568L28 13H23.125M27.1304 17.7568L26.7351 19.9189M27.1304 17.7568H23.125M3.12432 19.9189H6.875M26.7351 19.9189H23.125M6.875 13V17.7568M6.875 13H8.825M6.875 17.7568H8.825M8.825 13V17.7568M8.825 13H13.7M8.825 17.7568H13.7M6.875 19.9189V26.4054M6.875 19.9189H8.825M6.875 26.4054H8.825M8.825 19.9189V26.4054M8.825 19.9189H13.7M8.825 26.4054H13.7M13.7 13V17.7568M13.7 13H15.65M13.7 17.7568H15.65M15.65 13V17.7568M15.65 13H21.175M15.65 17.7568H21.175M13.7 19.9189V26.4054M13.7 19.9189H15.65M13.7 26.4054H15.65M15.65 19.9189V26.4054M15.65 19.9189H21.175M15.65 26.4054H21.175M23.125 13V17.7568M23.125 13H21.175M23.125 17.7568H21.175M23.125 19.9189V26.4054M23.125 19.9189H21.175M23.125 26.4054H21.175M21.175 13V17.7568M21.175 19.9189V26.4054" stroke="black"/>
<path d="M12 11C12.7546 10.3725 13.8111 8.74118 12 7.23529C10.1889 5.72941 11.2454 3.78431 12 3" stroke="black"/>
<path d="M17 11C17.7546 10.3725 18.8111 8.74118 17 7.23529C15.1889 5.72941 16.2454 3.78431 17 3" stroke="black"/>
<circle cx="4.5" cy="8.5" r="1" stroke="black"/>
<circle cx="27.5" cy="2.5" r="2" stroke="black"/>
<circle cx="2.5" cy="2.5" r="2" stroke="black"/>
<circle cx="25.5" cy="8.5" r="1" stroke="black"/>
</svg>
